<svg xmlns="http://www.w3.org/2000/svg" width="32" height="32"><path d="M11.885 2.669c-.365.06-.743.269-.932.517-.134.176-.536 1.326-2.044 5.847l-1.877 5.629-2.44.016-2.441.015-.262.163c-.408.251-.529.514-.529 1.144 0 .441.017.537.133.745.147.262.392.452.687.534.119.033 1.328.054 3.133.054 3.277 0 3.234.005 3.607-.36.259-.252.25-.228 1.78-4.826.7-2.105 1.285-3.827 1.3-3.827.015 0 1.547 4.562 3.406 10.137 3.664 10.991 3.463 10.448 3.954 10.7.766.391 1.445.216 1.783-.459.067-.135.955-2.746 1.973-5.802l1.851-5.558 2.437-.016c2.373-.015 2.442-.018 2.649-.13.446-.238.584-.52.586-1.192.001-.443-.016-.537-.132-.744a1.147 1.147 0 0 0-.396-.4l-.262-.163-3.011-.015c-2.551-.013-3.052-.003-3.285.064a1.208 1.208 0 0 0-.723.615c-.053.104-.705 2.02-1.449 4.256-.745 2.237-1.366 4.067-1.381 4.067-.015 0-1.536-4.53-3.381-10.067-1.845-5.536-3.409-10.176-3.476-10.311-.259-.517-.677-.728-1.258-.633" fill-rule="evenodd"/></svg>