<svg xmlns="http://www.w3.org/2000/svg" width="32" height="32"><path d="M15.674 5.566c-.538.147-1.198.826-1.327 1.367-.075.312-.015.645.172.96.061.103 1.708 1.789 3.661 3.746l3.55 3.56-9.518.014c-9.008.013-9.532.019-9.759.109a1.391 1.391 0 0 0-.733.728c-.116.302-.128 1.158-.02 1.464.099.281.41.613.7.748l.24.111 9.545.014 9.544.014-3.576 3.586c-3.887 3.896-3.83 3.831-3.83 4.413 0 .389.172.735.557 1.12.555.555 1.114.699 1.68.431.214-.101 1.226-1.08 5.101-4.932 2.659-2.643 4.943-4.897 5.076-5.008.306-.258.534-.775.534-1.211 0-.436-.228-.953-.534-1.211-.133-.111-2.417-2.365-5.076-5.008-3.686-3.664-4.891-4.832-5.074-4.915-.325-.149-.618-.181-.913-.1" fill-rule="evenodd"/></svg>