<svg xmlns="http://www.w3.org/2000/svg" width="32" height="32"><path d="M8.072 1.394c-.314.055-.631.23-.939.518-.357.333-.546.619-.653.986-.106.364-.052.715.169 1.101.085.149 2.307 2.413 5.824 5.934l5.685 5.694-5.737 5.746c-5.162 5.17-5.75 5.776-5.861 6.04-.269.642-.104 1.237.513 1.845.411.405.737.571 1.175.599.285.019.374-.001.669-.146.31-.153.946-.774 6.877-6.713 5.878-5.886 6.549-6.574 6.657-6.834a1.499 1.499 0 0 0-.05-1.204C22.212 14.567 9.379 1.735 8.987 1.547c-.323-.155-.619-.204-.915-.153" fill-rule="evenodd"/></svg>