<svg xmlns="http://www.w3.org/2000/svg" width="32" height="32"><path d="M14.934.058C12.883.255 10.789 1.134 9.2 2.462a10.507 10.507 0 0 0-2.801 3.576 10.661 10.661 0 0 0 1.32 11.349c.328.405 1.199 1.278 1.585 1.588l.21.169-.763 5.748c-.554 4.173-.755 5.833-.735 6.058.039.431.224.699.604.873.407.186.827.217 1.167.084.146-.057 1.606-.909 3.244-1.894l2.978-1.789 3.148 1.888L22.304 32h.441c.375 0 .463-.018.594-.12.337-.261.593-.664.64-1.008.023-.165-.203-2.022-.729-5.985l-.761-5.746.209-.168c.115-.092.445-.397.734-.677a10.61 10.61 0 0 0 2.169-12.258 9.909 9.909 0 0 0-1.885-2.714A10.643 10.643 0 0 0 14.934.058m1.818 2.661c3.143.306 5.799 2.397 6.81 5.361a8.048 8.048 0 0 1-.725 6.72c-.601 1.008-1.733 2.157-2.527 2.563-.137.071-.265.153-.284.184-.058.094-.932.508-1.439.682-.922.316-1.491.405-2.587.405-.822 0-1.08-.02-1.547-.121a8.172 8.172 0 0 1-2.773-1.137A8.04 8.04 0 0 1 9.163 14.8a8.048 8.048 0 0 1-.725-6.72 7.865 7.865 0 0 1 1.871-3.007 7.886 7.886 0 0 1 6.443-2.354m-4.08 18.076c2.197.719 4.459.719 6.657-.001.349-.114.64-.202.647-.194.03.035.987 7.415.965 7.437-.015.015-1.041-.582-2.28-1.325l-2.254-1.352h-.815l-2.253 1.352c-1.24.743-2.265 1.34-2.278 1.326-.021-.021.944-7.451.968-7.451.004 0 .294.093.643.208" fill-rule="evenodd"/></svg>