<svg xmlns="http://www.w3.org/2000/svg" width="32" height="32"><path d="M15.387 1.365c-1.416.135-2.217.344-3.36.876-3.246 1.51-5.36 4.841-5.36 8.442 0 .875-.1 2.451-.213 3.344-.255 2.03-.734 3.711-1.483 5.204-.457.912-.871 1.48-1.591 2.188-.361.355-.681.71-.712.79-.198.521.129 1.292.687 1.62l.245.144 12.339.014c8.154.009 12.407-.004 12.539-.04.497-.133.783-.504.837-1.081.055-.587-.048-.791-.75-1.494a7.66 7.66 0 0 1-1.531-2.13c-.782-1.559-1.265-3.278-1.509-5.375-.1-.857-.132-1.336-.192-2.934-.064-1.697-.168-2.325-.569-3.44-1.141-3.171-3.994-5.53-7.294-6.029-.501-.076-1.72-.134-2.083-.099m1.348 2.692c2.199.24 4.102 1.539 5.152 3.519.568 1.069.779 2.039.78 3.582 0 .805.117 2.439.238 3.348.31 2.316.904 4.302 1.815 6.067l.392.76H6.888l.392-.76c.911-1.765 1.503-3.745 1.815-6.067.117-.874.237-2.576.238-3.375 0-.775.076-1.568.194-2.038a6.74 6.74 0 0 1 4.926-4.905 6.609 6.609 0 0 1 2.282-.131m-3.366 22.634c-.357.127-.767.438-.918.694-.205.351-.191.686.05 1.173.343.695.95 1.283 1.712 1.659.674.332 1.049.42 1.787.42.742 0 1.11-.087 1.813-.431.429-.21.582-.323.992-.734 1.078-1.079 1.174-1.962.276-2.542-.514-.333-.901-.397-1.294-.216-.232.107-.336.207-.651.629-.252.338-.421.475-.713.578-.283.1-.563.1-.846 0-.292-.103-.461-.24-.713-.578-.315-.422-.419-.522-.651-.629a1.131 1.131 0 0 0-.844-.023" fill-rule="evenodd"/></svg>