<svg xmlns="http://www.w3.org/2000/svg" width="32" height="32"><path d="M12.56 2.745a3.43 3.43 0 0 0-1.171.426A4.193 4.193 0 0 0 9.491 5.52c-.102.318-.123.528-.145 1.423l-.025 1.05-2.354.019c-2.331.019-2.358.021-2.781.152a4.11 4.11 0 0 0-2.701 2.716l-.125.4v14.773l.125.4a4.12 4.12 0 0 0 2.728 2.729l.4.125h22.774l.4-.125a4.12 4.12 0 0 0 2.728-2.729l.125-.4V11.28l-.125-.4a4.111 4.111 0 0 0-2.062-2.453c-.781-.391-.787-.392-3.42-.414l-2.354-.02-.025-1.05c-.022-.895-.043-1.105-.145-1.423a4.127 4.127 0 0 0-2.695-2.69l-.427-.134-3.227-.011c-2.516-.009-3.309.004-3.6.06m6.521 2.669c.189.057.347.156.515.324.335.334.404.596.404 1.525V8h-8.009l.018-.867c.021-.973.047-1.06.427-1.429.374-.363.369-.363 3.541-.367 2.386-.003 2.873.009 3.104.077M9.333 18.669v8.002l-2.2-.015-2.2-.016-.245-.144a1.357 1.357 0 0 1-.615-.777c-.06-.2-.073-1.436-.073-7.051 0-7.671-.027-7.166.401-7.594.397-.397.409-.398 2.812-.403l2.12-.004v8.002M20 18.667v8h-8v-16h8v8m7.112-7.915c.148.051.345.18.484.319.433.433.404-.119.404 7.598 0 7.478.016 7.081-.3 7.494a1.599 1.599 0 0 1-.388.333l-.245.144-2.2.016-2.2.015V10.667h2.097c1.783 0 2.135.012 2.348.085" fill-rule="evenodd"/></svg>