<svg xmlns="http://www.w3.org/2000/svg" width="32" height="32"><path d="M14.747.94c-2.08.212-3.752.69-5.52 1.575C4.78 4.74 1.816 8.847 1.03 13.867c-.137.877-.137 3.387 0 4.266.567 3.636 2.253 6.764 4.936 9.156a15.126 15.126 0 0 0 7.501 3.611c1.504.262 3.563.264 5.04.004 6.387-1.121 11.287-6.012 12.393-12.371.264-1.515.264-3.551 0-5.066a15.414 15.414 0 0 0-2.298-5.803C27.494 5.979 25.781 4.31 24 3.179c-.634-.403-2.095-1.107-2.88-1.389-1.668-.598-3-.832-4.88-.856a29.05 29.05 0 0 0-1.493.006m-.496 5.687c.016 1.953.021 2.05.13 2.28.146.306.459.605.766.729.184.075.383.097.853.097s.669-.022.853-.097a1.58 1.58 0 0 0 .766-.729c.109-.23.114-.327.13-2.285l.017-2.044.224.037c.457.074 1.626.396 2.106.58a12.468 12.468 0 0 1 3.371 1.993c1.788 1.496 3.123 3.624 3.705 5.905.097.382.193.795.213.918l.037.224-2.018.016c-1.976.015-2.023.018-2.284.138a1.465 1.465 0 0 0-.737.704c-.154.333-.166 1.398-.019 1.76.124.307.423.62.729.766.23.109.327.114 2.285.13l2.044.017-.037.224c-.074.457-.396 1.626-.58 2.106a12.609 12.609 0 0 1-1.782 3.115 11.746 11.746 0 0 1-5.028 3.635c-.501.185-1.558.471-2.005.541l-.224.035-.017-2.044c-.016-1.957-.021-2.055-.13-2.285a1.481 1.481 0 0 0-.739-.704c-.229-.105-.353-.122-.88-.122s-.651.017-.88.122c-.34.157-.595.4-.739.704-.109.23-.114.328-.13 2.285l-.017 2.044-.224-.035a14.779 14.779 0 0 1-.858-.193c-4.045-1.007-7.29-4.238-8.324-8.287a17.182 17.182 0 0 1-.213-.917l-.037-.224 2.044-.017c1.958-.016 2.055-.021 2.285-.13a1.58 1.58 0 0 0 .729-.766c.147-.362.135-1.427-.019-1.76a1.465 1.465 0 0 0-.737-.704c-.261-.12-.308-.123-2.284-.138l-2.018-.016.037-.224c.02-.123.116-.536.213-.918 1.064-4.17 4.399-7.391 8.665-8.37a8.39 8.39 0 0 1 .651-.133c.083-.003.092.159.107 2.037" fill-rule="evenodd"/></svg>