<svg xmlns="http://www.w3.org/2000/svg" width="32" height="32"><path d="M6.532 1.113c-1.332.329-2.58 1.449-3.014 2.706-.17.491-.161.435-1.153 6.864-1.063 6.887-1.064 6.897-.798 7.785.379 1.267 1.138 2.191 2.246 2.737.966.475.891.467 4.574.489l3.24.019v1.805c0 .992.025 2.047.055 2.344.281 2.738 2.387 4.842 5.127 5.123.937.096 1.47-.078 1.842-.6.088-.124 1.272-2.727 2.63-5.785l2.47-5.56h1.284c1.833-.001 2.443-.087 3.218-.452 1.215-.573 2.107-1.55 2.518-2.758.274-.808.277-.874.258-6.07l-.017-4.827-.122-.426a4.824 4.824 0 0 0-2.543-3.042c-.942-.466.165-.424-11.28-.435-9.487-.009-10.185-.003-10.535.083m14.428 9.58v6.32L18.658 22.2a1728.362 1728.362 0 0 1-2.316 5.204c-.024.033-.259-.111-.488-.298-.256-.209-.618-.723-.717-1.017-.047-.142-.074-1.07-.096-3.369-.027-2.907-.038-3.196-.128-3.438-.138-.371-.308-.573-.633-.753l-.28-.156-4.213-.026c-3.82-.025-4.231-.035-4.4-.117-.395-.192-.587-.473-.587-.861 0-.279 1.775-11.987 1.867-12.313a.993.993 0 0 1 .492-.594c.158-.078.824-.086 6.988-.087l6.813-.002v6.32m5.77-6.257c.263.079.655.42.792.688.102.199.105.344.105 4.876 0 4.497-.004 4.678-.103 4.871-.138.271-.534.627-.785.705-.118.037-.664.076-1.286.09l-1.08.025V4.373h1.074c.669 0 1.153.024 1.283.063" fill-rule="evenodd"/></svg>