<svg xmlns="http://www.w3.org/2000/svg" width="32" height="32"><path d="M20.293 1.388a9.432 9.432 0 0 0-4.586 1.83c-.267.198-2.243 2.128-5.273 5.15-3.899 3.889-4.87 4.884-4.972 5.099l-.128.266v5.519l-.001 5.518-1.914 1.922c-1.281 1.286-1.953 2-2.032 2.158-.236.469-.118.956.345 1.418.462.463.949.581 1.418.345.158-.079.872-.751 2.158-2.032l1.922-1.914 5.518-.002c5.423-.001 5.523-.003 5.759-.109.18-.081.901-.762 2.906-2.747l2.867-2.838c1.408-1.394 4.199-4.295 4.449-4.625.831-1.098 1.483-2.522 1.745-3.813.662-3.261-.489-6.685-2.983-8.871-1.308-1.147-2.847-1.878-4.638-2.202-.528-.096-1.987-.137-2.56-.072m2.374 2.746c2.557.559 4.5 2.434 5.14 4.959.354 1.397.152 3.206-.505 4.519-.431.863-.697 1.178-2.655 3.148l-1.896 1.907h-7.523l3.634-3.64c2.548-2.553 3.669-3.711 3.752-3.877.235-.47.116-.956-.346-1.418-.454-.454-.961-.574-1.43-.34-.183.092-4.541 4.374-9.835 9.665-.064.064-.766.776-1.559 1.583l-1.443 1.467L8 18.318v-3.789l4.52-4.509c4.075-4.065 4.573-4.544 5.055-4.862.862-.569 1.749-.924 2.698-1.079.571-.094 1.847-.064 2.394.055M19.786 21.64c-.16.169-.747.769-1.305 1.333L17.468 24H9.894l1.333-1.333 1.332-1.334H20.076l-.29.307" fill-rule="evenodd"/></svg>