<svg xmlns="http://www.w3.org/2000/svg" width="32" height="32"><path d="M7.331 1.391c-1.488.249-2.717 1.34-3.179 2.822l-.125.4v22.774l.125.4a4.116 4.116 0 0 0 2.728 2.728l.4.125h17.44l.4-.125a4.116 4.116 0 0 0 2.728-2.728l.125-.4V10.16l-.119-.224a1.337 1.337 0 0 0-.347-.383c-.176-.123-7.165-7.111-7.882-7.881-.33-.354-.053-.339-6.341-.332-3.126.003-5.805.026-5.953.051m10.014 6.196.015 3.586.133.238c.147.263.392.453.687.535.121.033 1.507.054 3.673.054h3.48v7.433c0 8.1.017 7.649-.299 8.064a1.604 1.604 0 0 1-.389.332l-.245.144H7.6l-.245-.144a1.604 1.604 0 0 1-.389-.332c-.32-.419-.299.356-.299-11.494 0-12.208-.037-11.158.409-11.604.411-.41.142-.391 5.496-.395L17.33 4l.015 3.587m4.388.04 1.706 1.706H20V7.627c0-.939.006-1.707.014-1.707.007 0 .781.768 1.719 1.707m-11.534 3.09a1.23 1.23 0 0 0-.718.55c-.101.189-.121.309-.121.733 0 .442.017.537.133.745.15.268.396.455.706.538.134.036.831.051 1.926.04 1.634-.016 1.725-.022 1.928-.131.446-.238.584-.52.586-1.192.001-.443-.016-.537-.132-.744a1.147 1.147 0 0 0-.396-.4l-.262-.163-1.738-.009c-.956-.005-1.816.01-1.912.033m0 5.335c-.51.122-.813.531-.853 1.148-.042.641.146 1.065.576 1.307l.238.133H16c5.603 0 5.848-.004 6.027-.1.473-.253.61-.522.612-1.207.001-.443-.016-.536-.132-.744a1.164 1.164 0 0 0-.396-.4l-.263-.162-5.737-.009c-3.156-.004-5.816.011-5.912.034m-.048 5.358c-.315.099-.535.271-.672.528-.099.185-.119.307-.119.729 0 .441.017.537.133.744.147.263.392.453.687.535.265.073 11.375.073 11.64 0 .295-.082.54-.272.687-.535.116-.208.133-.301.132-.744-.002-.577-.108-.86-.402-1.069-.379-.27-.254-.265-6.259-.261-4.444.003-5.651.018-5.827.073" fill-rule="evenodd"/></svg>