<svg xmlns="http://www.w3.org/2000/svg" width="32" height="32"><path d="M9.192 1.412c-2.494.453-4.203 2.834-3.803 5.298.047.293.227.92.342 1.193.035.084-.097.092-1.771.107l-1.809.017-.262.162c-.168.104-.31.248-.396.4l-.133.238-.015 3.722c-.009 2.42.005 3.794.04 3.925.082.304.271.55.537.699.224.126.293.135 1.157.151l.919.018.014 6.249.015 6.249.114.213c.131.244.235.346.499.487.181.097.546.1 11.36.1h11.173l.214-.114c.244-.131.346-.236.487-.499.095-.179.1-.448.114-6.435l.014-6.248.919-.02c.809-.018.945-.034 1.132-.133.244-.129.346-.233.487-.498.095-.177.1-.377.1-4.026v-3.84l-.133-.238a1.164 1.164 0 0 0-.396-.4l-.262-.162-1.809-.017c-1.674-.015-1.806-.023-1.771-.107.992-2.359.028-4.979-2.242-6.094-1.406-.69-3.185-.61-4.756.215-.66.347-1.198.762-1.771 1.367a10.739 10.739 0 0 0-1.341 1.822c-.069.125-.14.227-.159.227-.019 0-.09-.102-.159-.227a10.11 10.11 0 0 0-1.61-2.101c-1.394-1.353-3.337-2.009-5.039-1.7m1.667 2.715c1.126.3 2.155 1.343 2.952 2.993.171.352.327.695.347.762l.037.122-2.337-.015-2.338-.016-.32-.149a2.235 2.235 0 0 1-1.02-1.018c-.127-.279-.148-.396-.149-.806 0-.412.021-.526.147-.8.259-.562.821-1.027 1.388-1.148.276-.059.933-.02 1.293.075m11.963.062c.4.183.814.599.998 1.005.127.279.148.396.149.806 0 .412-.021.526-.147.8a2.247 2.247 0 0 1-1.016 1.023l-.326.15-2.338.016-2.337.015.037-.122c.083-.273.673-1.427.915-1.792.313-.471.75-.976 1.106-1.278.343-.292.995-.626 1.364-.699.161-.032.341-.07.4-.083.259-.059.904.027 1.195.159m-8.155 8.478v2H4v-4h10.667v2m13.333 0v2H17.333v-4H28v2m-13.333 10V28h-8V17.333h8v5.334m10.666 0V28h-8V17.333h8v5.334" fill-rule="evenodd"/></svg>