<svg xmlns="http://www.w3.org/2000/svg" width="32" height="32"><path d="M15.307 1.338c-.22.025-.664.072-.987.105-2.518.258-4.99 1.247-7.173 2.871-.812.603-2.235 2.025-2.845 2.842C.987 11.598.405 17.353 2.769 22.32c.724 1.521 1.605 2.754 2.881 4.03 1.734 1.733 3.572 2.869 5.824 3.597 1.177.38 2.074.554 3.593.696 1.087.102.838.102 1.893-.001 1.515-.146 2.403-.319 3.566-.695 2.252-.728 4.09-1.864 5.824-3.597 1.746-1.746 2.885-3.599 3.615-5.883.501-1.568.671-2.699.671-4.467 0-.969-.024-1.472-.094-1.947-.381-2.596-1.302-4.829-2.848-6.902-.6-.806-2.027-2.23-2.841-2.836-2.167-1.616-4.639-2.608-7.146-2.87-1.746-.182-1.731-.181-2.4-.107m-2.45 3.209c-1.756 2.671-3.007 6.11-3.364 9.24-.033.293-.072.611-.086.706l-.025.174H4.091l.034-.319c.153-1.462.906-3.499 1.796-4.855a12.135 12.135 0 0 1 6.292-4.875c.396-.133.729-.242.739-.243.01-.001-.033.076-.095.172m7.543.292c2.278.89 4.292 2.541 5.68 4.654.885 1.35 1.643 3.398 1.795 4.855l.034.319h-5.291l-.025-.174-.137-1.026a21.242 21.242 0 0 0-2.082-6.747c-.356-.713-.925-1.716-1.246-2.197l-.096-.144.444.136c.244.075.66.221.924.324m-4.063.351c1.114 1.512 2.124 3.494 2.734 5.365.362 1.11.712 2.73.8 3.699l.037.413h-7.816l.037-.413c.213-2.341 1.197-5.284 2.512-7.507.532-.901 1.305-2.007 1.373-1.965.022.014.167.197.323.408m-6.93 12.317c.014.095.053.413.086.706.357 3.131 1.609 6.571 3.361 9.237l.112.17-.443-.134c-2.691-.817-5.028-2.579-6.602-4.979-.89-1.356-1.643-3.393-1.796-4.855l-.034-.319h5.291l.025.174m10.464.239c-.122 1.342-.602 3.283-1.179 4.766-.598 1.535-1.858 3.771-2.604 4.62l-.104.118-.322-.438c-1.101-1.499-2.138-3.535-2.736-5.372-.364-1.121-.708-2.713-.797-3.694l-.037-.413h7.816l-.037.413m8.004-.094c-.152 1.457-.91 3.505-1.795 4.855-1.577 2.402-3.912 4.162-6.604 4.979l-.444.135.096-.144c.316-.474.883-1.473 1.242-2.192a21.196 21.196 0 0 0 2.086-6.752l.137-1.026.025-.174h5.291l-.034.319" fill-rule="evenodd"/></svg>