<svg xmlns="http://www.w3.org/2000/svg" width="32" height="32"><path d="M15.531 1.43c-.135.053-2.752 2.053-6.387 4.881-5.221 4.063-6.181 4.83-6.305 5.04l-.146.249-.014 7.707c-.017 8.462-.029 8.089.303 8.896a4.022 4.022 0 0 0 2.145 2.147c.82.338.216.321 11.06.305l9.866-.015.507-.176c1.144-.399 2.041-1.234 2.476-2.306.311-.765.301-.45.285-8.826l-.014-7.682-.136-.265c-.126-.244-.62-.641-6.32-5.077-4.314-3.357-6.256-4.836-6.421-4.893-.302-.105-.61-.1-.899.015m5.829 7.097 5.307 4.128v7.106c0 7.742.015 7.332-.297 7.741a1.563 1.563 0 0 1-.385.323l-.252.148-2.2.016-2.2.015v-6.099c0-6.857.026-6.415-.398-6.84-.416-.415-.209-.398-4.935-.398s-4.519-.017-4.935.398c-.424.425-.398-.017-.398 6.838V28H8.57c-2.386 0-2.448-.009-2.838-.399-.427-.427-.399.138-.399-7.843v-7.103l5.32-4.14c2.926-2.276 5.338-4.134 5.36-4.127.022.007 2.428 1.869 5.347 4.139m-2.693 14.14V28h-5.334V17.333h5.334v5.334" fill-rule="evenodd"/></svg>