<svg xmlns="http://www.w3.org/2000/svg" width="32" height="32"><path d="M14.067 1.832a1.441 1.441 0 0 0-.704.579c-.079.126-1.243 2.581-2.587 5.456l-2.444 5.226-1.806.033c-2.012.036-2.295.073-2.988.393-.884.408-1.617 1.103-2.037 1.931-.062.123-.18.411-.26.64l-.147.417-.016 4.96c-.017 5.241-.014 5.314.233 6.022.381 1.09 1.325 2.056 2.425 2.482.8.309.297.296 11.197.296h10.054l.451-.121c1.464-.39 2.608-1.44 3.037-2.786.139-.438 1.98-11.805 2.018-12.457.063-1.113-.371-2.219-1.197-3.044-.514-.515-1.134-.867-2.016-1.146-.16-.051-1.063-.072-3.613-.086l-3.4-.019V8.632c0-1.764-.012-2.031-.107-2.498a5.449 5.449 0 0 0-1.739-2.999c-.546-.489-1.417-.953-2.234-1.192-.597-.174-1.786-.236-2.12-.111m1.871 3.452c.557.32.963.873 1.071 1.459.037.201.058 1.308.058 3.037 0 2.345.012 2.762.086 3.028.11.392.361.687.725.851l.282.128 4.24.026 4.24.027.22.143c.222.145.447.505.447.717 0 .287-1.879 11.682-1.951 11.834-.113.238-.418.439-.765.505-.184.035-2.669.054-6.972.054h-6.686V15.096l2.334-4.988c1.283-2.743 2.345-4.988 2.36-4.987.014 0 .154.073.311.163M7.733 21.711v5.392l-1.346-.019c-1.271-.018-1.36-.026-1.571-.138a1.35 1.35 0 0 1-.373-.315l-.15-.196-.016-4.617c-.01-3.035.003-4.683.039-4.806.077-.265.373-.533.681-.616.173-.046.661-.07 1.496-.072l1.24-.004v5.391" fill-rule="evenodd"/></svg>