<svg xmlns="http://www.w3.org/2000/svg" width="32" height="32"><path d="M15.653 2.704a12.662 12.662 0 0 0-4.615 1.297C9.78 4.632 8.844 5.295 7.863 6.25c-2.026 1.971-3.294 4.429-3.739 7.245-.136.862-.135 2.876.002 3.705.143.864.422 1.907.709 2.644l.252.65-1.217 3.655c-1.144 3.439-1.215 3.674-1.189 3.957.07.779.687 1.361 1.327 1.253.116-.02 1.847-.582 3.848-1.249l3.639-1.213.239.102c.392.168 1.43.516 1.87.629 1.739.444 3.796.483 5.64.107 1.888-.384 3.84-1.317 5.423-2.59.631-.508 1.637-1.548 2.096-2.169a13.228 13.228 0 0 0 2.473-5.989c.044-.302.07-.965.069-1.787-.001-1.126-.019-1.402-.125-2-.463-2.6-1.606-4.844-3.418-6.713-2.4-2.474-5.668-3.848-9.068-3.811-.455.005-.923.017-1.041.028m2.72 2.76c2.86.512 5.179 2.061 6.764 4.518.923 1.431 1.438 3.09 1.513 4.871a9.908 9.908 0 0 1-1.044 4.922c-1.229 2.451-3.229 4.184-5.832 5.051a9.32 9.32 0 0 1-2.734.49c-1.618.062-2.949-.202-4.568-.908-.868-.379-.727-.402-3.749.604-1.406.469-2.567.842-2.579.83-.012-.012.369-1.193.847-2.625.677-2.028.869-2.663.866-2.87-.002-.203-.067-.408-.27-.854a10.004 10.004 0 0 1-.705-6.213c.414-2.055 1.675-4.192 3.259-5.521 1.498-1.256 3.354-2.101 5.086-2.314.264-.032.54-.069.613-.082.301-.051 2.078.019 2.533.101" fill-rule="evenodd"/></svg>