<svg xmlns="http://www.w3.org/2000/svg" width="32" height="32"><path d="m15.04 1.364-.747.08c-2.517.267-4.972 1.253-7.146 2.87-.812.603-2.235 2.025-2.845 2.842C.987 11.598.405 17.353 2.769 22.32c.724 1.521 1.605 2.754 2.881 4.03 1.754 1.754 3.594 2.883 5.898 3.62 1.552.496 2.689.666 4.452.666s2.9-.17 4.452-.666c2.304-.737 4.144-1.866 5.898-3.62 1.746-1.746 2.885-3.599 3.615-5.883.501-1.568.671-2.699.671-4.467 0-.969-.024-1.472-.094-1.947-.381-2.596-1.302-4.829-2.848-6.902-.6-.806-2.027-2.23-2.841-2.836-2.119-1.58-4.365-2.501-6.955-2.854-.565-.077-2.466-.141-2.858-.097m2.72 2.771a12.02 12.02 0 0 1 6.719 3.386c1.833 1.834 2.994 4.149 3.396 6.772.129.846.129 2.568 0 3.414-.836 5.458-5.083 9.577-10.531 10.214-5.005.585-9.909-2.113-12.118-6.668-.853-1.758-1.195-3.262-1.195-5.253s.342-3.495 1.195-5.253a11.982 11.982 0 0 1 6.987-6.126c.941-.311 1.696-.464 2.907-.589.429-.044 2.095.021 2.64.103m-4.894 5.247a1.242 1.242 0 0 0-.718.551l-.121.227-.015 5.677c-.016 6.355-.038 5.963.371 6.428.391.444.876.571 1.354.354.119-.054 2.088-1.346 4.374-2.871 4.326-2.886 4.315-2.877 4.527-3.386.092-.222.108-.608.032-.806a1.477 1.477 0 0 0-.226-.332c-.103-.117-1.785-1.273-4.017-2.76-2.112-1.408-3.929-2.638-4.037-2.735a2.224 2.224 0 0 0-.368-.265c-.196-.101-.89-.15-1.156-.082m4.054 5.276c1.078.718 1.96 1.322 1.96 1.342 0 .027-2.905 1.987-4.067 2.743l-.146.096v-5.678l.146.096c.081.052 1.029.683 2.107 1.401" fill-rule="evenodd"/></svg>