<svg xmlns="http://www.w3.org/2000/svg" width="32" height="32"><path d="M4.792 2.91c-.47.085-.837.22-1.323.485a4.19 4.19 0 0 0-1.818 1.912c-.468.955-.443.666-.465 5.466-.02 4.403.005 5.227.197 6.32.374 2.137 1.191 4.131 2.393 5.84.708 1.008 2 2.369 2.944 3.1a14.916 14.916 0 0 0 12.72 2.708c1.069-.265 2.599-.852 3.493-1.341a19.872 19.872 0 0 0 2.076-1.361c.696-.536 2.096-1.967 2.658-2.717 1.439-1.922 2.351-4.109 2.744-6.583.12-.755.121-.833.122-5.486v-4.72l-.147-.469c-.447-1.426-1.357-2.414-2.713-2.947-.767-.302-.318-.291-11.853-.286-8.796.004-10.69.018-11.028.079m21.663 3.784c.34.176.326-.046.303 4.842-.019 4.244-.025 4.463-.133 5.024-.746 3.898-3.469 7.018-7.212 8.262a11.083 11.083 0 0 1-7.093 0c-4.012-1.334-6.85-4.829-7.304-8.993-.034-.319-.056-2.101-.056-4.63 0-3.565.011-4.132.081-4.267.174-.338-.641-.314 10.815-.317 9.233-.001 10.461.008 10.599.079m-16.188 4.891c-.276.098-.713.416-.963.701-.554.63-.678 1.247-.377 1.874.165.345.688.878 4.328 4.417 1.825 1.775 1.937 1.858 2.543 1.894.313.018.402 0 .708-.143.382-.179.397-.192 4.218-3.954 1.648-1.622 1.946-1.94 2.08-2.214.33-.677.167-1.32-.506-1.991-.495-.493-.768-.622-1.311-.622-.666 0-.726.043-2.558 1.821-.881.855-1.806 1.761-2.054 2.014-.249.252-.478.458-.509.458-.031 0-.187-.134-.348-.298a231.59 231.59 0 0 0-2.026-1.99c-1.961-1.912-2.128-2.036-2.741-2.028-.178.003-.396.03-.484.061" fill-rule="evenodd"/></svg>