<svg xmlns="http://www.w3.org/2000/svg" width="32" height="32"><path d="M13.283 2.301c-1.273.133-2.873.6-4.083 1.193-2.05 1.004-3.848 2.625-5.115 4.613-.616.967-1.243 2.495-1.543 3.76-.41 1.732-.41 3.867 0 5.6a12.675 12.675 0 0 0 2.17 4.666c.48.65 1.834 2.005 2.488 2.489 1.626 1.205 3.414 1.965 5.52 2.346.768.139 3.125.139 3.893 0 1.962-.355 3.847-1.125 5.253-2.147l.241-.175 2.48 2.465c2.776 2.76 2.738 2.729 3.413 2.729.506 0 .786-.133 1.246-.594.461-.46.594-.74.594-1.246 0-.675.031-.637-2.729-3.413l-2.465-2.48.173-.24c1.119-1.551 1.937-3.645 2.193-5.616.106-.817.106-2.352 0-3.168-.219-1.681-.914-3.642-1.764-4.976a13.925 13.925 0 0 0-2.661-3.032c-1.806-1.512-4.261-2.54-6.633-2.779-.643-.065-2.024-.062-2.671.005m2.888 3.622c2.48.402 4.772 1.964 6.095 4.154a8.97 8.97 0 0 1 .836 7.344 8.905 8.905 0 0 1-6.329 5.878c-.975.239-2.315.309-3.306.171a8.89 8.89 0 0 1-7.236-6.049 9.04 9.04 0 0 1 0-5.508 8.66 8.66 0 0 1 2.166-3.516c2.061-2.062 4.846-2.948 7.774-2.474" fill-rule="evenodd"/></svg>