<svg xmlns="http://www.w3.org/2000/svg" width="32" height="32"><path d="M15.227.076a3.766 3.766 0 0 0-1.776.851c-.891.765-1.37 1.705-1.43 2.806-.05.931-.177 1.158-.725 1.301-.418.108-.596.048-1.097-.373-.502-.422-.955-.684-1.497-.865-.366-.123-.493-.138-1.209-.139-.738-.001-.832.011-1.226.148-.643.223-1.116.526-1.628 1.043-.754.761-1.122 1.665-1.122 2.752 0 .958.34 1.895.941 2.587.43.496.502.627.502.922 0 .303-.142.608-.373.802-.175.148-.279.173-.916.222a3.552 3.552 0 0 0-1.458.401 4.113 4.113 0 0 0-2.061 2.453c-.18.576-.18 1.659 0 2.24.165.531.43 1.025.753 1.402.794.927 1.714 1.397 2.855 1.459.293.015.617.053.72.083.369.109.587.416.586.826 0 .291-.04.363-.528.959-1.153 1.407-1.233 3.387-.196 4.84a4.112 4.112 0 0 0 2.031 1.506c.616.202 1.536.235 2.164.078a4.263 4.263 0 0 0 1.65-.84c.498-.429.628-.5.922-.5.484 0 .914.338.966.76.015.125.042.404.06.62.127 1.531 1.245 2.898 2.789 3.41.356.118.506.136 1.156.139.641.004.803-.013 1.147-.121a4.023 4.023 0 0 0 1.402-.753c.927-.794 1.397-1.714 1.459-2.855.015-.293.053-.617.083-.72.109-.369.416-.587.826-.586.295 0 .424.07.923.499a4.275 4.275 0 0 0 1.649.841c.373.093.559.107 1.094.086 1.052-.041 1.784-.343 2.554-1.053.835-.772 1.269-1.774 1.267-2.927a3.908 3.908 0 0 0-.915-2.531c-.494-.602-.528-.666-.529-.974 0-.195.034-.324.12-.451.199-.295.412-.383 1.047-.432 1.215-.094 2.092-.54 2.888-1.47.322-.376.587-.869.753-1.402.105-.336.125-.514.125-1.12 0-.606-.02-.784-.125-1.12a4.023 4.023 0 0 0-.753-1.402c-.798-.931-1.721-1.394-2.908-1.459-.294-.016-.608-.051-.698-.078-.335-.102-.556-.479-.555-.949 0-.283.075-.42.502-.912 1.038-1.197 1.236-2.948.5-4.427-.182-.364-.32-.547-.708-.933-.548-.545-.892-.767-1.561-1.005-.445-.159-.504-.167-1.267-.165-.715.002-.844.016-1.209.139-.542.181-.995.443-1.497.865-.453.381-.676.473-.981.405-.484-.11-.662-.396-.721-1.166-.094-1.215-.541-2.093-1.47-2.888-.361-.308-1.027-.657-1.482-.774-.455-.118-1.358-.145-1.813-.055m1.213 2.667c.292.104.551.321.712.594.118.202.147.337.186.85.108 1.456.842 2.577 2.044 3.122 1.338.606 2.779.385 3.897-.598.467-.41.707-.522 1.121-.522.75 0 1.304.554 1.304 1.304 0 .409-.111.653-.498 1.094-.874.993-1.153 2.164-.815 3.426.156.581.278.846.571 1.244.624.844 1.57 1.325 2.766 1.406.667.045.819.087 1.105.305.389.297.585.894.454 1.38a1.495 1.495 0 0 1-.625.804c-.189.111-.345.147-.808.187-1.003.086-1.591.306-2.23.833-1.548 1.277-1.697 3.557-.335 5.107.41.467.522.707.522 1.121 0 .75-.554 1.304-1.304 1.304-.409 0-.654-.111-1.094-.499a3.875 3.875 0 0 0-1.517-.835c-.597-.161-1.478-.131-2.047.071-1.414.5-2.321 1.717-2.392 3.207-.033.694-.127.984-.411 1.276-.522.537-1.334.539-1.868.005-.272-.271-.405-.607-.405-1.021 0-.157-.037-.471-.083-.697a3.532 3.532 0 0 0-1.89-2.429c-.633-.306-1.058-.407-1.714-.408-.895-.001-1.67.303-2.392.938-.441.388-.685.499-1.094.499-.75 0-1.304-.554-1.304-1.304 0-.409.111-.653.498-1.094 1.385-1.574 1.247-3.849-.311-5.134-.654-.54-1.249-.756-2.286-.834-.518-.038-.659-.069-.854-.183-.708-.415-.881-1.324-.377-1.985.253-.332.536-.456 1.155-.505.889-.071 1.39-.239 1.991-.667a3.357 3.357 0 0 0 1.113-1.325c.308-.638.416-1.068.417-1.66.002-.88-.316-1.699-.931-2.399-.41-.467-.522-.707-.522-1.121 0-.75.554-1.304 1.304-1.304.409 0 .653.111 1.094.498.991.872 2.166 1.152 3.426.815.581-.156.846-.278 1.244-.571.843-.623 1.32-1.559 1.407-2.762.059-.827.167-1.077.593-1.372a1.32 1.32 0 0 1 1.183-.161m-1.295 8.005c-1.505.235-2.954 1.217-3.719 2.522-1.666 2.84-.449 6.443 2.59 7.668a5.314 5.314 0 0 0 6.922-2.954 5.278 5.278 0 0 0 .002-3.962 5.3 5.3 0 0 0-4.134-3.277 4.927 4.927 0 0 0-1.661.003m1.553 2.683c.985.257 1.768 1.134 1.924 2.156.134.871-.125 1.656-.751 2.286-.392.393-.746.596-1.243.713-.893.211-1.76-.015-2.423-.632-1.774-1.649-.62-4.615 1.795-4.615.191 0 .505.042.698.092" fill-rule="evenodd"/></svg>