<svg xmlns="http://www.w3.org/2000/svg" width="32" height="32"><path d="m15.973 1.631-.426.181c-.15.065-.381.294-.53.525-.069.108-.567.628-1.105 1.155-3.503 3.432-4.047 3.992-4.214 4.341-.142.297-.16.384-.142.693.014.235.065.444.153.62.173.351.808.989 1.141 1.148a1.53 1.53 0 0 0 1.527-.11c.127-.084.718-.623 1.313-1.199l1.083-1.047v6.133c0 5.827.005 6.149.099 6.451.055.175.167.407.249.514.497.652 1.829.817 2.658.331.266-.155.449-.369.602-.7.094-.203.1-.514.113-6.47l.015-6.257 1.148 1.101c.954.914 1.208 1.128 1.495 1.263.296.138.393.158.677.14.415-.026.75-.185 1.136-.538.758-.693.96-1.387.609-2.099-.171-.348-.379-.561-4.414-4.525-.477-.468-.867-.88-.867-.916 0-.163-.478-.537-.898-.703-.553-.218-.958-.228-1.422-.032M5.697 14.209c-.483.139-.811.416-1.014.858l-.123.266-.015 5.547c-.011 3.874.002 5.65.043 5.891.291 1.701 1.574 3.071 3.305 3.532l.454.12 7.946.018c5.271.012 8.109 0 8.427-.037.677-.078 1.048-.185 1.6-.459a4.386 4.386 0 0 0 2.319-2.914c.107-.453.109-.571.095-6.08l-.014-5.618-.123-.272c-.266-.587-.749-.875-1.536-.916-.989-.052-1.583.237-1.898.922l-.123.266-.027 5.44c-.021 4.357-.04 5.465-.096 5.563a.811.811 0 0 1-.24.227c-.167.101-.341.103-8.037.103-7.696 0-7.87-.002-8.037-.103a.811.811 0 0 1-.24-.227c-.056-.098-.075-1.206-.096-5.563l-.027-5.44-.123-.272a1.56 1.56 0 0 0-.784-.774c-.333-.148-1.243-.192-1.636-.078" fill-rule="evenodd"/></svg>