<svg xmlns="http://www.w3.org/2000/svg" width="32" height="32"><path d="M10.2 3.421C5.207 5.294 4.617 5.527 4.405 5.713 3.977 6.09 4 5.758 4 11.527c0 4.282.013 5.209.082 5.737.244 1.879.935 3.637 2.135 5.429 1.697 2.537 4.63 5.164 8.023 7.187 1.061.633 1.355.76 1.76.76s.699-.127 1.76-.76c1.814-1.081 3.577-2.393 4.987-3.709 3.146-2.938 4.805-5.842 5.198-9.103.034-.279.055-2.405.055-5.55 0-5.759.023-5.428-.405-5.805-.212-.186-.8-.419-5.801-2.293-4.264-1.599-5.62-2.086-5.8-2.086-.176.001-1.603.515-5.794 2.087M20.683 5.85l4.656 1.745-.02 4.696c-.02 4.53-.024 4.714-.132 5.21-.621 2.851-2.624 5.59-5.987 8.185-.983.758-3.028 2.101-3.2 2.101-.175 0-2.202-1.331-3.191-2.095-3.383-2.614-5.374-5.335-5.996-8.191-.108-.496-.112-.68-.132-5.21l-.02-4.696 4.63-1.74a439.61 439.61 0 0 1 4.682-1.745c.03-.003 2.149.78 4.71 1.74m-6.016 7.483v1.334H12v2.666h2.667V20h2.666v-2.667H20v-2.666h-2.667V12h-2.666v1.333" fill-rule="evenodd"/></svg>