<svg xmlns="http://www.w3.org/2000/svg" width="32" height="32"><path d="M12.622 1.123c-.981.164-1.872.681-2.559 1.483-.348.407-.606.88-.798 1.465-.146.446-.162.569-.186 1.407l-.026.918-2.78.016c-3.109.018-3.061.012-3.459.401-.29.283-.387.58-.387 1.187 0 .596.073.839.339 1.136.326.361.55.43 1.486.454l.813.021.014 8.915.015 8.914.123.399a4.521 4.521 0 0 0 1.396 2.105c.395.337.869.596 1.458.796l.489.167h14.827l.423-.123a4.427 4.427 0 0 0 2.134-1.397c.337-.395.596-.869.796-1.458l.167-.489.014-8.914.014-8.915.813-.021c.936-.024 1.16-.093 1.486-.454.266-.297.339-.54.339-1.136 0-.607-.097-.904-.387-1.187-.398-.389-.35-.383-3.46-.401l-2.781-.016-.026-.918c-.02-.732-.049-.999-.142-1.317a4.336 4.336 0 0 0-3.47-3.037c-.41-.067-6.29-.068-6.685-.001m6.595 3.297c.112.07.268.224.347.343.134.202.144.26.161.926l.019.711h-7.477v-.6c0-.33.025-.688.054-.795.068-.244.419-.611.65-.679.105-.031 1.351-.048 3.109-.042l2.933.009.204.127m4.504 13.887-.014 8.706-.173.248a1.12 1.12 0 0 1-.403.36c-.231.112-.232.112-7.139.112H9.083l-.235-.124a1.346 1.346 0 0 1-.395-.351l-.16-.227-.014-8.716L8.265 9.6h15.47l-.014 8.707" fill-rule="evenodd"/></svg>