<svg xmlns="http://www.w3.org/2000/svg" width="32" height="32"><path d="M15.2 2.725c-2.142.24-4.121 1.619-5.111 3.56-.539 1.056-.729 1.85-.729 3.048s.19 1.993.729 3.049c.918 1.799 2.583 3.056 4.631 3.494.628.135 1.932.135 2.56 0 2.693-.576 4.686-2.57 5.263-5.263.07-.327.097-.682.097-1.28 0-.597-.027-.952-.097-1.28-.442-2.065-1.745-3.762-3.599-4.689-1.136-.568-2.42-.787-3.744-.639m1.947 2.78c.653.191 1.104.469 1.658 1.023.55.551.827.997 1.029 1.658.11.363.13.536.13 1.147 0 .612-.02.785-.13 1.148a4.1 4.1 0 0 1-2.714 2.7c-.579.181-1.661.181-2.24 0a4.1 4.1 0 0 1-2.714-2.7c-.11-.363-.13-.536-.13-1.148 0-.611.02-.784.13-1.147.202-.661.479-1.107 1.029-1.658.663-.662 1.262-.982 2.136-1.141.445-.08 1.335-.023 1.816.118m-7.28 13.22c-2.474.278-4.664 2.044-5.49 4.43-.328.947-.35 1.157-.35 3.352 0 1.851.007 2.013.099 2.186.223.417.506.583 1.068.624.642.048 1.069-.138 1.313-.572l.133-.238.031-1.947c.029-1.869.036-1.964.161-2.374.395-1.289 1.455-2.335 2.739-2.703L10 21.36h12l.429.123a4.093 4.093 0 0 1 2.738 2.703c.125.41.132.507.162 2.374l.031 1.947.133.238c.242.431.666.617 1.312.576.622-.039 1.002-.324 1.146-.856.038-.141.049-.864.034-2.139-.024-2.082-.043-2.25-.356-3.153a6.62 6.62 0 0 0-3.205-3.727 6.202 6.202 0 0 0-2.355-.723c-.623-.068-11.594-.066-12.202.002" fill-rule="evenodd"/></svg>